<svg xmlns="http://www.w3.org/2000/svg" width="1020" height="544" fill="none"><g clip-path="url(#a)"><path fill="#F4A694" d="M92.305 61.585v30.298c0 4.369-.423 8.033-1.41 10.71-.986 2.678-2.536 4.792-4.51 6.201-1.972 1.409-4.65 2.395-7.75 2.818-3.1.423-6.905.705-11.133.705-4.368 0-7.891-.282-10.992-.705-2.96-.423-5.496-1.409-7.328-2.818-1.832-1.409-3.241-3.523-4.227-6.201-.846-2.677-1.41-6.2-1.41-10.71 0-4.932.282-9.583.705-13.67.423-4.227 1.268-8.173 2.255-11.978a52.087 52.087 0 0 1 4.227-10.992c1.691-3.523 3.946-7.046 6.342-10.71L82.017 7.188c.846-1.268 1.832-2.395 2.819-3.382.986-.845 2.255-1.69 3.664-2.255C90.05.988 91.74.565 93.855.283c2.254-.14 4.791-.282 7.751-.282 3.382 0 6.059.141 8.173.423 2.114.282 3.664.705 4.651 1.41.986.704 1.55 1.55 1.55 2.677 0 .986-.282 2.255-.846 3.664l-22.83 53.41Zm76.803 0v30.298c0 4.369-.423 8.033-1.41 10.71-.986 2.678-2.536 4.792-4.509 6.201-1.973 1.409-4.651 2.395-7.892 2.818a84.735 84.735 0 0 1-10.992.705c-4.368 0-7.892-.282-10.992-.705-2.959-.423-5.496-1.409-7.469-2.818-1.973-1.409-3.382-3.523-4.227-6.201-.846-2.677-1.269-6.2-1.269-10.71 0-4.932.282-9.583.705-13.67.423-4.227 1.268-8.173 2.255-11.978a52.063 52.063 0 0 1 4.227-10.992c1.691-3.523 3.946-7.046 6.342-10.71l24.802-37.345c.846-1.268 1.832-2.395 2.819-3.382.986-.845 2.255-1.69 3.664-2.255 1.55-.563 3.241-.986 5.355-1.268 2.114-.282 4.65-.423 7.892-.423 3.382 0 6.059.141 8.173.423 2.114.282 3.664.705 4.65 1.41.987.704 1.551 1.55 1.551 2.677 0 .986-.282 2.255-.846 3.664l-22.829 53.55Z"/><path fill="#F78D74" d="M975.891 302.703H44.109C19.729 302.703 0 282.833 0 258.594c0-24.379 19.73-44.109 44.109-44.109H975.89c24.379 0 44.109 19.73 44.109 44.109 0 24.239-19.73 44.109-44.109 44.109Z"/><path fill="#414E58" d="M47.068 193.206c-3.664-1.972-6.482-4.65-8.455-8.173-1.973-3.523-3.1-7.328-3.1-11.697 0-4.368.986-8.314 3.1-11.696 2.114-3.523 4.932-6.201 8.455-8.174 3.664-1.973 7.61-2.959 12.12-2.959 3.523 0 6.623.564 9.582 1.691 2.96 1.127 5.356 2.959 7.47 5.214l-4.087 4.087c-3.383-3.523-7.61-5.355-12.543-5.355-3.382 0-6.341.704-9.019 2.255-2.677 1.55-4.79 3.523-6.341 6.2-1.55 2.678-2.255 5.496-2.255 8.737 0 3.242.705 6.201 2.255 8.738 1.55 2.677 3.664 4.65 6.341 6.2 2.678 1.55 5.637 2.255 9.02 2.255 4.932 0 9.16-1.832 12.542-5.355l4.086 4.087c-2.113 2.254-4.51 4.086-7.469 5.214-2.959 1.127-6.06 1.832-9.582 1.832-4.51-.141-8.597-1.128-12.12-3.101ZM88.5 193.771c-2.678-1.55-4.792-3.523-6.342-6.201-1.55-2.677-2.255-5.637-2.255-8.878 0-3.382.705-6.342 2.255-8.878 1.55-2.678 3.664-4.651 6.342-6.201 2.677-1.409 5.778-2.255 9.019-2.255 3.382 0 6.341.705 9.019 2.255a14.624 14.624 0 0 1 6.2 6.201c1.551 2.677 2.255 5.637 2.255 8.878 0 3.382-.704 6.341-2.255 8.878-1.55 2.678-3.664 4.651-6.2 6.201-2.678 1.55-5.637 2.254-9.02 2.254-3.24 0-6.34-.704-9.018-2.254Zm14.938-4.51a10.728 10.728 0 0 0 4.086-4.228c.987-1.832 1.41-3.945 1.41-6.2 0-2.396-.423-4.369-1.41-6.201a10.726 10.726 0 0 0-4.086-4.227c-1.692-.987-3.664-1.41-5.92-1.41-2.254 0-4.086.423-5.918 1.41a10.73 10.73 0 0 0-4.087 4.227 13.046 13.046 0 0 0-1.55 6.201c0 2.396.564 4.368 1.55 6.2a10.733 10.733 0 0 0 4.087 4.228c1.691.987 3.664 1.55 5.919 1.55 2.255 0 4.227-.563 5.919-1.55ZM152.056 165.163c2.537 2.536 3.805 6.2 3.805 10.992v19.447h-6.201v-18.743c0-3.241-.845-5.778-2.395-7.469-1.551-1.691-3.805-2.536-6.765-2.536-3.382 0-5.919.986-7.891 2.959-1.973 1.973-2.819 4.791-2.819 8.315v17.474h-6.201V161.64h5.919v5.073c1.269-1.691 2.96-3.101 5.073-4.087 2.114-.986 4.51-1.409 7.188-1.409 4.368.282 7.75 1.55 10.287 3.946ZM196.587 161.78l-14.796 33.963h-6.201l-14.938-33.963h6.342l11.696 27.198 11.838-27.198h6.059ZM202.506 154.171c-.845-.705-1.127-1.692-1.127-2.819s.423-2.114 1.127-2.818c.846-.846 1.832-1.128 2.96-1.128 1.127 0 2.114.423 2.959 1.128.846.704 1.127 1.691 1.127 2.818s-.422 2.114-1.127 2.959c-.845.846-1.832 1.128-2.959 1.128-1.269-.141-2.255-.564-2.96-1.268Zm-.141 7.609h6.201v33.963h-6.201V161.78ZM250.702 180.805h-27.48c.423 2.959 1.691 5.355 3.946 7.187 2.255 1.832 5.073 2.677 8.314 2.677 4.087 0 7.328-1.409 9.724-4.087l3.382 3.946c-1.55 1.832-3.382 3.101-5.778 4.087-2.255.986-4.791 1.409-7.61 1.409-3.523 0-6.764-.704-9.582-2.255-2.819-1.409-4.933-3.523-6.483-6.2-1.55-2.678-2.255-5.637-2.255-9.019 0-3.241.705-6.201 2.255-8.878 1.409-2.678 3.523-4.651 6.06-6.201a17.894 17.894 0 0 1 8.737-2.255c3.241 0 6.06.705 8.596 2.255 2.537 1.409 4.51 3.523 5.919 6.201 1.409 2.677 2.114 5.637 2.114 9.019.282.704.282 1.268.141 2.114Zm-23.957-11.415c-1.973 1.832-3.1 4.087-3.523 7.046h21.702c-.282-2.819-1.55-5.214-3.523-7.046-1.973-1.832-4.51-2.678-7.328-2.678-2.818 0-5.355.846-7.328 2.678Zm11.133-20.857h7.751l-10.71 8.315h-5.778l8.737-8.315ZM270.008 163.048c2.114-.986 4.651-1.55 7.61-1.55v5.919h-1.409c-3.382 0-5.919.986-7.892 2.959-1.973 1.973-2.818 4.792-2.818 8.456v16.91h-6.201V161.78h5.919v5.637c.986-1.832 2.677-3.382 4.791-4.369ZM305.521 193.769c-.846.705-1.973 1.409-3.382 1.691-1.268.423-2.678.564-4.087.564-3.382 0-6.06-.986-7.892-2.818-1.832-1.832-2.818-4.51-2.818-7.892v-18.602h-5.778v-5.073h5.778v-7.469h6.201v7.469h9.723v5.073h-9.723v18.32c0 1.832.422 3.241 1.409 4.228.986.986 2.255 1.409 3.946 1.409 1.832 0 3.523-.564 4.791-1.55l1.832 4.65ZM342.302 180.805h-27.48c.423 2.959 1.691 5.355 3.946 7.187 2.254 1.832 5.073 2.678 8.314 2.678 4.087 0 7.328-1.41 9.724-4.087l3.382 3.946c-1.55 1.832-3.382 3.1-5.778 4.087-2.255.986-4.791 1.409-7.61 1.409-3.523 0-6.764-.705-9.583-2.255-2.818-1.409-4.932-3.523-6.482-6.201-1.55-2.677-2.255-5.637-2.255-9.019 0-3.241.705-6.2 2.255-8.878 1.409-2.677 3.523-4.65 6.06-6.2a17.883 17.883 0 0 1 8.737-2.255c3.241 0 6.06.704 8.596 2.255 2.537 1.409 4.51 3.523 5.919 6.2 1.409 2.678 2.114 5.637 2.114 9.019.282.705.282 1.269.141 2.114Zm-23.957-11.415c-1.973 1.832-3.1 4.087-3.523 7.046h21.702c-.282-2.818-1.55-5.214-3.523-7.046-1.973-1.832-4.51-2.677-7.328-2.677-2.819 0-5.355.845-7.328 2.677ZM370.064 193.769c-.846.705-1.973 1.409-3.382 1.691-1.269.423-2.678.564-4.087.564-3.382 0-6.06-.986-7.892-2.818-1.832-1.832-2.818-4.51-2.818-7.892v-18.602h-5.778v-5.073h5.778v-7.469h6.2v7.469h9.724v5.073h-9.865v18.32c0 1.832.423 3.241 1.41 4.228.986.986 2.254 1.409 3.945 1.409 1.832 0 3.523-.564 4.792-1.55l1.973 4.65ZM406.845 180.805h-27.48c.422 2.959 1.691 5.355 3.945 7.187 2.255 1.832 5.074 2.678 8.315 2.678 4.087 0 7.328-1.41 9.724-4.087l3.382 3.946c-1.55 1.832-3.382 3.1-5.778 4.087-2.255.986-4.791 1.409-7.61 1.409-3.523 0-6.764-.705-9.583-2.255-2.818-1.409-4.932-3.523-6.482-6.201-1.55-2.677-2.255-5.637-2.255-9.019 0-3.241.705-6.2 2.255-8.878 1.409-2.677 3.523-4.65 6.06-6.2a17.88 17.88 0 0 1 8.737-2.255c3.241 0 6.059.704 8.596 2.255 2.537 1.409 4.51 3.523 5.919 6.2 1.409 2.678 2.114 5.637 2.114 9.019.281.705.141 1.269.141 2.114Zm-24.098-11.415c-1.973 1.832-3.101 4.087-3.523 7.046h21.702c-.282-2.818-1.55-5.214-3.523-7.046-1.973-1.832-4.51-2.677-7.328-2.677-2.819 0-5.355.845-7.328 2.677ZM463.073 180.805h-27.48c.423 2.959 1.691 5.355 3.946 7.187 2.254 1.832 5.073 2.678 8.314 2.678 4.087 0 7.328-1.41 9.724-4.087l3.382 3.946c-1.55 1.832-3.382 3.1-5.778 4.087-2.255.986-4.791 1.409-7.61 1.409-3.523 0-6.764-.705-9.582-2.255-2.819-1.409-4.933-3.523-6.483-6.201-1.55-2.677-2.255-5.637-2.255-9.019 0-3.241.705-6.2 2.255-8.878 1.409-2.677 3.523-4.65 6.06-6.2a17.883 17.883 0 0 1 8.737-2.255c3.241 0 6.06.704 8.596 2.255 2.537 1.409 4.51 3.523 5.919 6.2 1.409 2.678 2.114 5.637 2.114 9.019.282.705.282 1.269.141 2.114Zm-23.957-11.415c-1.973 1.832-3.1 4.087-3.523 7.046h21.702c-.282-2.818-1.55-5.214-3.523-7.046-1.973-1.832-4.51-2.677-7.328-2.677-2.819 0-5.355.845-7.328 2.677ZM500.135 165.163c2.537 2.536 3.805 6.2 3.805 10.992v19.447h-6.2v-18.743c0-3.241-.846-5.778-2.396-7.469-1.55-1.691-3.805-2.536-6.764-2.536-3.382 0-5.919.986-7.892 2.959-1.973 1.973-2.818 4.791-2.818 8.315v17.474h-6.201V161.64h5.919v5.073c1.268-1.691 2.959-3.101 5.073-4.087 2.114-.986 4.51-1.409 7.187-1.409 4.369.282 7.751 1.55 10.287 3.946ZM564.114 161.78v33.963h-5.777v-5.074c-1.269 1.692-2.819 3.101-4.933 4.087-1.973.987-4.227 1.409-6.623 1.409-4.51 0-8.033-1.268-10.71-3.804-2.537-2.537-3.946-6.201-3.946-10.992v-19.448h6.201v18.743c0 3.241.845 5.778 2.395 7.469 1.55 1.691 3.805 2.536 6.765 2.536 3.241 0 5.777-.986 7.609-2.959 1.832-1.973 2.819-4.791 2.819-8.314v-17.475h6.2v-.141ZM604.137 165.163c2.536 2.536 3.805 6.2 3.805 10.992v19.447h-6.201v-18.743c0-3.241-.846-5.778-2.396-7.469-1.55-1.691-3.805-2.536-6.764-2.536-3.382 0-5.919.986-7.892 2.959-1.973 1.973-2.818 4.791-2.818 8.315v17.474h-6.201V161.64h5.919v5.073c1.268-1.691 2.959-3.101 5.073-4.087 2.114-.986 4.51-1.409 7.187-1.409 4.369.282 7.751 1.55 10.288 3.946Z"/><path fill="#fff" d="M66.939 269.868H47.914l-3.523 8.737H31.426l19.73-44.813h12.4l19.87 44.813H70.463l-3.523-8.737Zm-3.805-9.301-5.778-14.374-5.778 14.374h11.556ZM123.589 243.938v28.325c0 6.483-1.691 11.274-5.214 14.515-3.523 3.242-8.596 4.792-15.078 4.792-3.383 0-6.624-.423-9.583-1.128-2.96-.704-5.496-1.832-7.61-3.382l4.369-8.455a14.7 14.7 0 0 0 5.355 2.677c2.114.705 4.227.987 6.341.987 3.241 0 5.496-.705 7.046-2.114 1.55-1.409 2.255-3.523 2.255-6.201v-1.127c-2.396 2.677-5.778 4.087-10.287 4.087-3.1 0-5.919-.705-8.456-2.114-2.536-1.409-4.65-3.382-6.2-5.919-1.55-2.537-2.255-5.496-2.255-8.737 0-3.241.705-6.201 2.255-8.737 1.55-2.537 3.664-4.51 6.2-5.919 2.537-1.409 5.496-2.114 8.456-2.114 4.932 0 8.596 1.55 10.851 4.791v-4.227h11.555Zm-14.233 21.279c1.409-1.268 2.114-2.959 2.114-5.073 0-2.114-.705-3.805-2.114-5.073-1.409-1.269-3.241-1.973-5.496-1.973-2.255 0-4.087.704-5.496 1.973-1.409 1.268-2.114 2.959-2.114 5.073 0 2.114.705 3.805 2.114 5.073 1.41 1.268 3.241 1.973 5.496 1.973 2.255 0 4.087-.705 5.496-1.973ZM166.571 264.372h-25.225c.563 1.832 1.55 3.101 2.959 4.087 1.409.986 3.382 1.409 5.496 1.409 1.691 0 3.1-.282 4.369-.704 1.268-.423 2.395-1.269 3.664-2.255l6.341 6.623c-3.382 3.805-8.314 5.637-14.797 5.637-4.086 0-7.61-.704-10.71-2.255-3.1-1.55-5.496-3.664-7.187-6.341-1.691-2.678-2.537-5.778-2.537-9.301 0-3.382.846-6.483 2.396-9.16 1.691-2.678 3.946-4.791 6.764-6.342 2.96-1.55 6.201-2.254 9.724-2.254 3.523 0 6.624.704 9.442 2.113 2.818 1.41 5.073 3.524 6.623 6.201 1.691 2.678 2.396 5.919 2.396 9.583.564 0 .423.986.282 2.959Zm-22.971-10.71c-1.268 1.127-2.113 2.537-2.395 4.369h14.233c-.282-1.832-1.127-3.242-2.396-4.369-1.268-1.127-2.818-1.55-4.65-1.55-1.973-.141-3.523.423-4.792 1.55ZM205.325 247.179c2.677 2.537 3.945 6.483 3.945 11.556v19.87h-12.119v-17.897c0-4.791-1.832-7.046-5.637-7.046-2.114 0-3.805.705-5.073 2.114-1.268 1.409-1.832 3.382-1.832 6.2v16.77H172.49v-34.667h11.555v3.805c1.41-1.409 2.96-2.537 4.792-3.241a17.335 17.335 0 0 1 6.2-1.128c4.228-.14 7.751 1.128 10.288 3.664ZM240.837 277.196c-.986.705-2.254 1.127-3.805 1.409-1.409.282-3.1.564-4.65.564-4.51 0-8.033-1.127-10.428-3.382-2.396-2.255-3.664-5.496-3.664-9.865v-11.696h-5.074v-9.019h5.074v-9.019h12.119v9.019h7.892v9.019h-7.892v11.555c0 1.269.282 2.255.986 2.96.705.704 1.551.986 2.678.986 1.409 0 2.678-.423 3.664-1.127l3.1 8.596ZM279.732 264.372h-25.225c.564 1.832 1.55 3.101 2.959 4.087 1.409.986 3.382 1.409 5.496 1.409 1.691 0 3.1-.282 4.369-.704 1.268-.423 2.395-1.269 3.664-2.255l6.341 6.623c-3.382 3.805-8.314 5.637-14.797 5.637-4.086 0-7.609-.704-10.71-2.255-3.1-1.55-5.496-3.664-7.187-6.341-1.691-2.678-2.536-5.778-2.536-9.301 0-3.382.845-6.483 2.395-9.16 1.691-2.678 3.946-4.791 6.765-6.342 2.959-1.55 6.2-2.254 9.723-2.254 3.523 0 6.624.704 9.442 2.113 2.819 1.41 5.073 3.524 6.623 6.201 1.692 2.678 2.396 5.919 2.396 9.583.423 0 .423.986.282 2.959Zm-22.97-10.71c-1.269 1.127-2.114 2.537-2.396 4.369h14.233c-.282-1.832-1.127-3.242-2.396-4.369-1.268-1.127-2.818-1.55-4.65-1.55-1.973-.141-3.523.423-4.791 1.55ZM304.675 233.792h12.683v44.813h-12.683v-44.813ZM358.79 247.179c2.677 2.537 3.946 6.483 3.946 11.556v19.87h-12.12v-17.897c0-4.791-1.832-7.046-5.637-7.046-2.113 0-3.805.705-5.073 2.114-1.268 1.409-1.832 3.382-1.832 6.2v16.77h-12.119v-34.667h11.556v3.805c1.409-1.409 2.959-2.537 4.791-3.241a17.335 17.335 0 0 1 6.2-1.128c4.228-.14 7.61 1.128 10.288 3.664ZM425.728 247.179c2.537 2.537 3.805 6.483 3.805 11.556v19.87h-12.119v-17.897c0-2.396-.423-4.228-1.41-5.355-.986-1.127-2.254-1.691-3.804-1.691-1.832 0-3.242.705-4.369 1.973-1.127 1.268-1.691 3.241-1.691 5.778v17.192h-12.12v-17.897c0-4.791-1.691-7.046-5.214-7.046-1.832 0-3.382.705-4.509 1.973-1.128 1.268-1.691 3.241-1.691 5.778v17.192h-12.12v-34.667h11.556v3.664c1.268-1.409 2.818-2.395 4.51-3.1 1.691-.705 3.664-.987 5.777-.987 2.396 0 4.651.423 6.483 1.41 1.832.986 3.523 2.254 4.65 4.086 1.41-1.691 3.101-3.1 5.214-4.086 2.114-.987 4.369-1.41 6.906-1.41 4.227-.14 7.61 1.128 10.146 3.664ZM445.035 276.914c-2.96-1.55-5.356-3.664-7.047-6.341-1.691-2.678-2.536-5.778-2.536-9.301 0-3.382.845-6.483 2.536-9.16 1.691-2.678 3.946-4.791 6.906-6.342 2.959-1.55 6.341-2.254 10.005-2.254 3.805 0 7.187.704 10.147 2.254 2.959 1.551 5.355 3.664 6.905 6.342 1.691 2.677 2.536 5.778 2.536 9.301 0 3.523-.845 6.482-2.536 9.301-1.691 2.677-3.946 4.791-6.905 6.341-2.96 1.55-6.342 2.255-10.147 2.255-3.523-.141-6.905-.845-9.864-2.396Zm15.219-9.582c1.409-1.41 2.114-3.523 2.114-6.06 0-2.537-.705-4.51-2.114-6.06-1.409-1.409-3.1-2.114-5.214-2.114-2.114 0-3.946.705-5.214 2.114-1.409 1.409-2.114 3.523-2.114 6.06 0 2.537.705 4.65 2.114 6.06 1.409 1.409 3.1 2.254 5.214 2.254 2.114 0 3.946-.845 5.214-2.254ZM510.705 245.489c2.536 1.41 4.65 3.523 6.2 6.201 1.55 2.678 2.255 5.919 2.255 9.442 0 3.523-.705 6.764-2.255 9.442-1.55 2.677-3.523 4.791-6.2 6.341-2.537 1.409-5.496 2.255-8.597 2.255-4.509 0-8.032-1.409-10.287-4.087v3.523h-11.556v-47.491h12.12v15.784c2.395-2.396 5.496-3.523 9.723-3.523 3.101 0 6.06.704 8.597 2.113Zm-5.919 21.843c1.409-1.409 2.114-3.523 2.114-6.059 0-2.537-.705-4.51-2.114-6.06-1.409-1.409-3.1-2.114-5.214-2.114-2.114 0-3.946.705-5.214 2.114-1.41 1.409-2.114 3.523-2.114 6.06 0 2.536.704 4.65 2.114 6.059 1.409 1.41 3.1 2.255 5.214 2.255 2.114 0 3.805-.845 5.214-2.255ZM525.361 238.301c-1.41-1.268-2.114-2.819-2.114-4.651 0-1.832.704-3.382 2.114-4.65 1.409-1.268 3.1-1.832 5.355-1.832 2.255 0 3.946.564 5.355 1.691 1.409 1.127 2.114 2.678 2.114 4.51 0 1.973-.705 3.523-2.114 4.791-1.409 1.268-3.1 1.832-5.355 1.832-2.114.141-3.946-.564-5.355-1.691Zm-.705 5.637h12.119v34.667h-12.119v-34.667ZM544.667 231.115h12.119v47.491h-12.119v-47.491ZM565.524 238.301c-1.409-1.268-2.114-2.819-2.114-4.651 0-1.832.705-3.382 2.114-4.65 1.409-1.268 3.1-1.832 5.355-1.832 2.255 0 3.946.564 5.355 1.691 1.409 1.127 2.114 2.678 2.114 4.51 0 1.973-.705 3.523-2.114 4.791-1.409 1.268-3.1 1.832-5.355 1.832-2.255.141-4.087-.564-5.355-1.691Zm-.705 5.637h12.12v34.667h-12.12v-34.667ZM612.733 247.321c2.959 2.677 4.509 6.623 4.509 12.119v19.307h-11.273v-4.51c-1.691 3.382-5.215 5.073-10.288 5.073-2.677 0-5.073-.423-6.905-1.409-1.973-.986-3.382-2.255-4.51-3.805-.986-1.55-1.55-3.382-1.55-5.496 0-3.241 1.269-5.778 3.805-7.61 2.537-1.832 6.342-2.677 11.697-2.677h6.905c-.282-3.664-2.677-5.496-7.328-5.496-1.691 0-3.382.282-5.073.845-1.691.564-3.1 1.269-4.369 2.255l-4.087-8.314c1.973-1.269 4.228-2.255 7.047-2.96 2.818-.704 5.496-.986 8.314-.986 5.637-.282 10.006.986 13.106 3.664Zm-9.865 23.111c1.128-.705 1.832-1.691 2.255-2.959v-2.96h-5.214c-3.523 0-5.355 1.128-5.355 3.523 0 1.128.423 1.973 1.268 2.537.846.705 1.973.986 3.382.986 1.269 0 2.537-.422 3.664-1.127ZM641.34 244.501c1.973-.845 4.228-1.127 6.765-1.127v10.992c-1.128-.141-1.973-.141-2.819-.141-2.536 0-4.65.705-6.06 2.114-1.409 1.409-2.254 3.523-2.254 6.482v15.925h-12.12v-34.667h11.556v4.086c1.268-1.691 2.959-2.818 4.932-3.664ZM653.882 238.301c-1.409-1.268-2.114-2.819-2.114-4.651 0-1.832.705-3.382 2.114-4.65 1.41-1.268 3.101-1.832 5.355-1.832 2.255 0 3.946.564 5.355 1.691 1.41 1.127 2.114 2.678 2.114 4.51 0 1.973-.704 3.523-2.114 4.791-1.409 1.268-3.1 1.832-5.355 1.832-2.254.141-4.086-.564-5.355-1.691Zm-.704 5.637h12.119v34.667h-12.119v-34.667ZM680.517 276.914c-2.96-1.55-5.355-3.664-7.046-6.341-1.691-2.678-2.537-5.778-2.537-9.301 0-3.382.846-6.483 2.537-9.16 1.691-2.678 3.946-4.791 6.905-6.342 2.959-1.55 6.341-2.254 10.005-2.254 3.805 0 7.188.704 10.147 2.254 2.959 1.551 5.355 3.664 6.905 6.342 1.691 2.677 2.537 5.778 2.537 9.301 0 3.523-.846 6.482-2.537 9.301-1.691 2.677-3.946 4.791-6.905 6.341-2.959 1.55-6.342 2.255-10.147 2.255-3.523-.141-6.905-.845-9.864-2.396Zm15.22-9.582c1.409-1.41 2.113-3.523 2.113-6.06 0-2.537-.704-4.51-2.113-6.06-1.41-1.409-3.101-2.114-5.215-2.114-2.113 0-3.946.705-5.214 2.114-1.409 1.409-2.114 3.523-2.114 6.06 0 2.537.705 4.65 2.114 6.06 1.409 1.409 3.101 2.254 5.214 2.254 2.114 0 3.946-.845 5.215-2.254ZM770.848 268.882v9.723h-35.935v-44.813h35.09v9.724h-22.548v7.61h19.87v9.441h-19.87v8.174h23.393v.141ZM799.174 278.605l-6.201-9.019-6.623 9.019h-13.106l13.106-17.333-12.824-17.334h13.669l6.201 8.738 6.342-8.738h12.824l-12.824 16.911 13.246 17.756h-13.81ZM817.353 238.301c-1.409-1.268-2.114-2.819-2.114-4.651 0-1.832.705-3.382 2.114-4.65 1.409-1.268 3.1-1.832 5.355-1.832 2.255 0 3.946.564 5.355 1.691 1.409 1.127 2.114 2.678 2.114 4.51 0 1.973-.705 3.523-2.114 4.791-1.409 1.268-3.1 1.832-5.355 1.832-2.114.141-3.946-.564-5.355-1.691Zm-.705 5.637h12.12v34.667h-12.12v-34.667ZM860.616 277.196c-.986.705-2.254 1.127-3.805 1.409-1.409.282-3.1.564-4.65.564-4.509 0-8.033-1.127-10.428-3.382-2.396-2.255-3.664-5.496-3.664-9.865v-11.696h-5.074v-9.019h5.074v-9.019h12.119v9.019h7.892v9.019h-7.892v11.555c0 1.269.282 2.255.987 2.96.704.704 1.55.986 2.677.986 1.409 0 2.678-.423 3.664-1.127l3.1 8.596ZM871.608 276.914c-2.959-1.55-5.355-3.664-7.046-6.341-1.691-2.678-2.536-5.778-2.536-9.301 0-3.382.845-6.483 2.536-9.16 1.691-2.678 3.946-4.791 6.905-6.342 2.96-1.55 6.342-2.254 10.006-2.254 3.805 0 7.187.704 10.146 2.254 2.96 1.551 5.355 3.664 6.905 6.342 1.692 2.677 2.537 5.778 2.537 9.301 0 3.523-.845 6.482-2.537 9.301-1.691 2.677-3.945 4.791-6.905 6.341-2.959 1.55-6.341 2.255-10.146 2.255-3.523-.141-6.905-.845-9.865-2.396Zm15.361-9.582c1.409-1.41 2.114-3.523 2.114-6.06 0-2.537-.705-4.51-2.114-6.06-1.409-1.409-3.1-2.114-5.214-2.114-2.114 0-3.946.705-5.214 2.114-1.41 1.409-2.114 3.523-2.114 6.06 0 2.537.704 4.65 2.114 6.06 1.409 1.409 3.1 2.254 5.214 2.254 2.114 0 3.805-.845 5.214-2.254ZM910.926 278.182c-2.819-.705-5.073-1.55-6.765-2.537l3.665-8.314c1.55.986 3.523 1.691 5.636 2.396 2.114.563 4.369.845 6.483.845 1.973 0 3.382-.141 4.228-.564.845-.422 1.268-.986 1.268-1.691 0-.704-.564-1.268-1.55-1.691-.987-.282-2.537-.563-4.792-.986-2.818-.282-5.073-.846-7.046-1.409-1.973-.564-3.664-1.551-5.073-3.101-1.409-1.55-2.114-3.523-2.114-6.2a9.65 9.65 0 0 1 1.973-5.919c1.268-1.691 3.241-3.1 5.778-4.087 2.536-.986 5.637-1.55 9.16-1.55 2.536 0 5.073.282 7.469.705 2.536.563 4.509 1.268 6.2 2.113l-3.664 8.315c-3.1-1.691-6.341-2.537-10.005-2.537-1.973 0-3.382.282-4.228.705-.845.423-1.409.986-1.409 1.691 0 .846.423 1.409 1.409 1.691.987.282 2.537.705 4.792.987 2.818.422 5.214.986 7.046 1.409 1.832.563 3.523 1.55 4.932 3.1 1.409 1.409 2.114 3.523 2.114 6.201 0 2.114-.705 4.086-1.973 5.918-1.268 1.692-3.241 3.101-5.919 4.087-2.536.987-5.637 1.409-9.301 1.409-2.677 0-5.496-.281-8.314-.986ZM949.257 276.914c-2.96-1.55-5.355-3.664-7.046-6.341-1.691-2.678-2.537-5.778-2.537-9.301 0-3.382.846-6.483 2.537-9.16 1.691-2.678 3.946-4.791 6.905-6.342 2.959-1.55 6.341-2.254 10.005-2.254 3.805 0 7.188.704 10.147 2.254 2.959 1.551 5.355 3.664 6.905 6.342 1.691 2.677 2.537 5.778 2.537 9.301 0 3.523-.846 6.482-2.537 9.301-1.691 2.677-3.946 4.791-6.905 6.341-2.959 1.55-6.342 2.255-10.147 2.255-3.523-.141-6.905-.845-9.864-2.396Zm15.22-9.582c1.409-1.41 2.113-3.523 2.113-6.06 0-2.537-.704-4.51-2.113-6.06-1.41-1.409-3.101-2.114-5.215-2.114-2.113 0-3.945.705-5.214 2.114-1.409 1.409-2.114 3.523-2.114 6.06 0 2.537.705 4.65 2.114 6.06 1.409 1.409 3.101 2.254 5.214 2.254 2.114 0 3.946-.845 5.215-2.254Z"/><path fill="#414E58" d="M68.77 346.671H41.29c.423 2.96 1.692 5.355 3.946 7.187 2.255 1.832 5.074 2.678 8.315 2.678 4.087 0 7.328-1.409 9.724-4.087l3.382 3.946c-1.55 1.832-3.382 3.1-5.778 4.087-2.255.986-4.792 1.409-7.61 1.409-3.523 0-6.764-.705-9.583-2.255-2.818-1.409-4.932-3.523-6.482-6.2-1.55-2.678-2.255-5.637-2.255-9.019 0-3.242.705-6.201 2.255-8.879 1.409-2.677 3.523-4.65 6.06-6.2A17.896 17.896 0 0 1 52 327.083c3.24 0 6.06.705 8.596 2.255 2.537 1.409 4.51 3.523 5.919 6.2 1.409 2.678 2.114 5.637 2.114 9.019.281.705.14 1.269.14 2.114Zm-24.097-11.555c-1.973 1.832-3.1 4.086-3.523 7.046h21.702c-.282-2.819-1.55-5.214-3.523-7.046-1.973-1.832-4.51-2.678-7.328-2.678-2.819 0-5.215.987-7.328 2.678ZM105.692 331.029c2.537 2.536 3.805 6.2 3.805 10.992v19.447h-6.2v-18.743c0-3.241-.846-5.777-2.396-7.468-1.55-1.692-3.805-2.537-6.764-2.537-3.383 0-5.92.986-7.892 2.959-1.973 1.973-2.819 4.792-2.819 8.315v17.474h-6.2v-33.962h5.919v5.073c1.268-1.691 2.959-3.1 5.073-4.087 2.114-.986 4.51-1.409 7.187-1.409 4.368.282 7.751 1.409 10.287 3.946ZM170.235 320.882c3.382 2.819 4.932 6.624 4.932 11.415 0 4.791-1.691 8.737-4.932 11.415-3.382 2.818-7.892 4.087-13.669 4.087h-11.133v13.528h-6.342v-44.813h17.334c5.918.282 10.428 1.691 13.81 4.368Zm-4.65 18.884c2.113-1.691 3.241-4.228 3.241-7.469 0-3.241-1.128-5.778-3.241-7.469-2.114-1.691-5.215-2.537-9.301-2.537h-10.851v20.152h10.851c4.086 0 7.187-.845 9.301-2.677ZM214.062 346.671h-27.48c.423 2.96 1.691 5.355 3.946 7.187 2.255 1.832 5.073 2.678 8.314 2.678 4.087 0 7.328-1.409 9.724-4.087l3.382 3.946c-1.55 1.832-3.382 3.1-5.778 4.087-2.254.986-4.791 1.409-7.61 1.409-3.523 0-6.764-.705-9.582-2.255-2.819-1.409-4.933-3.523-6.483-6.2-1.55-2.678-2.255-5.637-2.255-9.019 0-3.242.705-6.201 2.255-8.879 1.409-2.677 3.523-4.65 6.06-6.2a17.897 17.897 0 0 1 8.737-2.255c3.241 0 6.06.705 8.596 2.255 2.537 1.409 4.51 3.523 5.919 6.2 1.409 2.678 2.114 5.637 2.114 9.019.282.705.141 1.269.141 2.114Zm-24.098-11.555c-1.973 1.832-3.1 4.086-3.523 7.046h21.702c-.282-2.819-1.55-5.214-3.523-7.046-1.973-1.832-4.509-2.678-7.328-2.678-2.818 0-5.214.987-7.328 2.678ZM233.227 328.774c2.114-.987 4.651-1.55 7.61-1.55v5.918h-1.409c-3.382 0-5.919.987-7.892 2.96-1.973 1.973-2.818 4.791-2.818 8.455v16.911h-6.06v-33.963h5.919v5.637c.986-1.832 2.678-3.241 4.65-4.368ZM280.437 327.646v33.963h-5.778v-5.074c-1.269 1.691-2.819 3.101-4.933 4.087-1.972.987-4.227 1.409-6.623 1.409-4.509 0-8.032-1.268-10.71-3.805-2.537-2.536-3.946-6.2-3.946-10.992v-19.447h6.201v18.743c0 3.241.845 5.778 2.395 7.469 1.551 1.691 3.805 2.536 6.765 2.536 3.241 0 5.778-.986 7.61-2.959 1.832-1.973 2.818-4.791 2.818-8.314v-17.475h6.201v-.141Zm-11.979-13.247h7.751l-10.71 8.315h-5.778l8.737-8.315ZM51.86 421.782c.422.563.704 1.127.704 1.832 0 .704-.282 1.268-.704 1.691-.423.423-1.128.704-1.832.704-.705 0-1.41-.281-1.832-.704-.564-.423-.705-1.128-.705-1.691 0-.705.282-1.269.705-1.832.563-.564 1.127-.705 1.832-.705.845 0 1.409.141 1.832.705Zm.422 26.352h-4.368l.704-18.32h2.96l.704 18.32ZM59.47 414.454h3.945v27.621H59.47v-27.621ZM88.64 423.332c1.55 1.55 2.396 3.805 2.396 6.764v11.979h-3.805v-11.556c0-1.973-.422-3.523-1.409-4.51-.987-.986-2.396-1.55-4.228-1.55-2.113 0-3.664.564-4.791 1.832-1.127 1.128-1.832 2.96-1.832 5.214v10.711h-3.805v-20.857h3.664v3.1c.705-1.127 1.832-1.973 3.1-2.536 1.269-.564 2.819-.846 4.51-.846 2.537 0 4.65.705 6.2 2.255ZM99.069 441.653c-1.55-.423-2.819-.987-3.664-1.691l1.55-2.96c.986.705 1.973 1.128 3.382 1.55 1.268.423 2.678.564 3.946.564 3.382 0 4.932-.986 4.932-2.818 0-.564-.282-1.128-.704-1.551-.423-.422-.987-.704-1.691-.845-.705-.141-1.692-.423-2.819-.564-1.691-.282-3.1-.564-4.087-.845-1.127-.282-1.973-.987-2.677-1.691-.705-.846-1.128-1.973-1.128-3.383 0-1.832.846-3.382 2.396-4.509 1.55-1.128 3.664-1.691 6.342-1.691 1.409 0 2.818.141 4.227.563a9.392 9.392 0 0 1 3.382 1.41l-1.55 2.959c-1.691-1.127-3.664-1.691-6.059-1.691-1.551 0-2.819.282-3.664.846-.846.563-1.269 1.268-1.269 2.113 0 .705.282 1.269.705 1.551.423.422 1.127.704 1.691.845.705.141 1.691.423 2.959.564 1.691.282 3.101.563 4.087.986.987.282 1.973.846 2.678 1.691.704.846 1.127 1.832 1.127 3.382 0 1.832-.845 3.383-2.396 4.51-1.55 1.127-3.805 1.691-6.623 1.691-1.832-.282-3.382-.564-5.073-.986ZM121.194 440.949a11.36 11.36 0 0 1-3.946-3.805c-.987-1.551-1.409-3.383-1.409-5.496 0-2.114.422-3.946 1.409-5.496a11.343 11.343 0 0 1 3.946-3.805c1.691-.846 3.523-1.409 5.637-1.409 1.832 0 3.523.422 5.073 1.127 1.55.704 2.677 1.832 3.523 3.382l-2.819 1.832c-.704-.986-1.409-1.691-2.395-2.255-.987-.563-2.114-.704-3.241-.704-1.41 0-2.537.281-3.664.845a5.53 5.53 0 0 0-2.537 2.537c-.564 1.127-.987 2.395-.987 3.805 0 1.409.282 2.818.987 3.946a5.532 5.532 0 0 0 2.537 2.536c1.127.564 2.254.846 3.664.846 1.127 0 2.254-.282 3.241-.705.986-.564 1.832-1.268 2.395-2.255l2.819 1.832a9.046 9.046 0 0 1-3.523 3.382c-1.55.846-3.241 1.128-5.073 1.128-1.973.141-3.946-.282-5.637-1.268ZM146.842 421.924a11.336 11.336 0 0 1 4.65-.986v3.663h-.845c-2.114 0-3.664.564-4.792 1.832-1.127 1.269-1.691 2.96-1.691 5.215v10.428h-3.805v-20.857h3.664v3.523c.564-1.268 1.55-2.113 2.819-2.818ZM160.511 413.045h4.792l-6.624 5.073h-3.523l5.355-5.073Zm-4.227 8.173h3.804v20.857h-3.804v-20.857ZM183.763 422.346c1.551.846 2.819 2.114 3.805 3.805.846 1.55 1.41 3.523 1.41 5.496 0 2.114-.423 3.946-1.41 5.637-.986 1.691-2.114 2.818-3.805 3.805a11.352 11.352 0 0 1-5.496 1.409c-1.55 0-2.959-.282-4.227-.845-1.269-.564-2.396-1.551-3.241-2.678v3.382h-3.664v-29.453h3.804v11.556c.846-1.127 1.832-1.973 3.101-2.537a10.117 10.117 0 0 1 4.087-.845c2.254 0 4.086.423 5.636 1.268Zm-2.113 15.783c1.127-.563 1.972-1.55 2.536-2.536.564-.987.987-2.396.987-3.805 0-1.409-.282-2.678-.987-3.805-.704-1.127-1.409-1.973-2.536-2.537-1.128-.563-2.255-.845-3.664-.845-1.269 0-2.537.282-3.523.845a5.534 5.534 0 0 0-2.537 2.537c-.564 1.127-.846 2.396-.846 3.805 0 1.409.282 2.678.846 3.805a5.527 5.527 0 0 0 2.537 2.536c1.127.564 2.254.987 3.523.987 1.409 0 2.536-.423 3.664-.987ZM212.934 432.914h-16.91c.282 1.832.986 3.382 2.395 4.369 1.41 1.127 3.101 1.691 5.215 1.691 2.536 0 4.509-.846 6.059-2.537l2.114 2.396c-.986 1.127-2.114 1.973-3.523 2.537-1.409.563-2.959.845-4.65.845-2.255 0-4.228-.423-5.919-1.409-1.691-.987-3.1-2.114-3.946-3.805-.986-1.691-1.409-3.523-1.409-5.496 0-1.973.423-3.805 1.409-5.496a8.301 8.301 0 0 1 3.805-3.805c1.691-.845 3.382-1.409 5.355-1.409 1.973 0 3.805.423 5.355 1.409a8.71 8.71 0 0 1 3.664 3.805c.846 1.691 1.268 3.523 1.268 5.637-.141.423-.141.846-.282 1.268Zm-14.796-7.046c-1.269 1.128-1.973 2.537-2.114 4.369h13.387c-.141-1.832-.986-3.241-2.113-4.369-1.269-1.127-2.678-1.691-4.51-1.691-1.832 0-3.382.564-4.65 1.691ZM230.127 440.948a7.466 7.466 0 0 1-2.114 1.128 7.999 7.999 0 0 1-2.536.422c-2.114 0-3.805-.563-4.933-1.691-1.127-1.127-1.691-2.818-1.691-4.791v-11.415h-3.523v-3.1h3.523v-4.51h3.805v4.51h6.06v3.1h-6.06v11.274c0 1.127.282 1.973.846 2.537.563.563 1.409.845 2.395.845 1.128 0 2.114-.282 2.96-.986l1.268 2.677ZM252.816 432.914h-16.911c.282 1.832.986 3.382 2.396 4.369 1.409 1.127 3.1 1.691 5.214 1.691 2.536 0 4.509-.846 6.059-2.537l2.114 2.396c-.986 1.127-2.114 1.973-3.523 2.537-1.409.563-2.959.845-4.65.845-2.255 0-4.228-.423-5.919-1.409-1.691-.987-3.1-2.114-3.946-3.805-.986-1.691-1.409-3.523-1.409-5.496 0-1.973.423-3.805 1.409-5.496a8.301 8.301 0 0 1 3.805-3.805c1.691-.845 3.382-1.409 5.355-1.409 1.973 0 3.805.423 5.355 1.409a8.705 8.705 0 0 1 3.664 3.805c.846 1.691 1.268 3.523 1.268 5.637-.281.423-.281.846-.281 1.268Zm-14.938-7.046c-1.269 1.128-1.973 2.537-2.114 4.369h13.388c-.141-1.832-.987-3.241-2.114-4.369-1.269-1.127-2.678-1.691-4.51-1.691-1.832 0-3.382.564-4.65 1.691ZM286.214 423.333c1.55 1.55 2.396 3.805 2.396 6.764v11.978h-3.805V430.52c0-1.973-.423-3.523-1.409-4.51-.987-.986-2.396-1.55-4.228-1.55-2.114 0-3.664.564-4.791 1.832-1.128 1.127-1.832 2.959-1.832 5.214v10.71h-3.805v-29.312h3.805v11.274c.845-.986 1.832-1.832 3.1-2.396 1.268-.563 2.678-.845 4.228-.845 2.677.141 4.791.845 6.341 2.396ZM299.038 440.949a11.37 11.37 0 0 1-3.946-3.805c-.986-1.551-1.409-3.383-1.409-5.496 0-2.114.423-3.946 1.409-5.496a11.352 11.352 0 0 1 3.946-3.805c1.691-.846 3.523-1.409 5.637-1.409 2.114 0 3.946.422 5.637 1.409a8.292 8.292 0 0 1 3.805 3.805c.846 1.691 1.409 3.523 1.409 5.496 0 1.973-.422 3.945-1.409 5.496a12.261 12.261 0 0 1-3.805 3.805c-1.691.986-3.523 1.409-5.637 1.409-2.114 0-3.946-.423-5.637-1.409Zm9.16-2.819c1.128-.564 1.832-1.55 2.537-2.537.564-1.127.845-2.395.845-3.804 0-1.41-.281-2.678-.845-3.805a5.53 5.53 0 0 0-2.537-2.537c-1.127-.564-2.254-.846-3.664-.846-1.409 0-2.536.282-3.664.846a5.527 5.527 0 0 0-2.536 2.537c-.564 1.127-.987 2.395-.987 3.805 0 1.409.282 2.677.987 3.804.704 1.128 1.409 1.973 2.536 2.537 1.128.564 2.255.987 3.664.987 1.41 0 2.678-.423 3.664-.987ZM338.638 421.219l-10.147 22.97c-.845 2.114-1.973 3.664-3.1 4.51-1.127.845-2.677 1.268-4.369 1.268-.986 0-1.972-.141-2.959-.564-.986-.282-1.691-.845-2.396-1.409l1.551-2.818c1.127.986 2.395 1.55 3.804 1.55.987 0 1.691-.282 2.255-.705.564-.423 1.128-1.268 1.691-2.536l.705-1.41-9.301-20.856h3.946l7.328 16.77 7.187-16.77h3.805ZM371.332 421.219l-10.147 22.97c-.845 2.114-1.973 3.664-3.1 4.51-1.127.845-2.678 1.268-4.369 1.268-.986 0-1.973-.141-2.959-.564-.986-.282-1.691-.845-2.396-1.409l1.55-2.818c1.128.986 2.396 1.55 3.805 1.55.987 0 1.691-.282 2.255-.705.564-.423 1.128-1.268 1.691-2.536l.705-1.41-9.301-20.856h3.946l7.328 16.77 7.187-16.77h3.805ZM388.806 440.949a11.37 11.37 0 0 1-3.946-3.805c-.986-1.551-1.409-3.383-1.409-5.496 0-2.114.423-3.946 1.409-5.496a11.352 11.352 0 0 1 3.946-3.805c1.691-.846 3.523-1.409 5.637-1.409 2.114 0 3.946.422 5.637 1.409a8.296 8.296 0 0 1 3.805 3.805c.846 1.691 1.409 3.523 1.409 5.496 0 1.973-.423 3.945-1.409 5.496a12.261 12.261 0 0 1-3.805 3.805c-1.691.986-3.523 1.409-5.637 1.409-2.114 0-3.946-.423-5.637-1.409Zm9.301-2.819c1.128-.564 1.832-1.55 2.537-2.537.563-1.127.845-2.395.845-3.804 0-1.41-.282-2.678-.845-3.805a5.53 5.53 0 0 0-2.537-2.537c-1.127-.564-2.255-.846-3.664-.846-1.409 0-2.536.282-3.664.846a5.527 5.527 0 0 0-2.536 2.537c-.564 1.127-.987 2.395-.987 3.805 0 1.409.282 2.677.987 3.804.704 1.128 1.409 1.973 2.536 2.537 1.128.564 2.255.987 3.664.987 1.409 0 2.537-.423 3.664-.987ZM427.137 422.346c1.55.846 2.819 2.114 3.805 3.805.846 1.55 1.409 3.523 1.409 5.496 0 2.114-.422 3.946-1.409 5.637-.986 1.691-2.114 2.818-3.805 3.805a11.352 11.352 0 0 1-5.496 1.409c-1.55 0-2.959-.282-4.227-.845-1.269-.564-2.396-1.551-3.242-2.678v3.382h-3.664v-29.453h3.805v11.556c.846-1.127 1.832-1.973 3.101-2.537a10.116 10.116 0 0 1 4.086-.845c2.114 0 3.946.423 5.637 1.268Zm-2.255 15.783c1.128-.563 1.973-1.55 2.537-2.536.564-.987.987-2.396.987-3.805 0-1.409-.282-2.678-.987-3.805-.705-1.127-1.409-1.973-2.537-2.537-1.127-.563-2.254-.845-3.664-.845-1.268 0-2.536.282-3.523.845a5.532 5.532 0 0 0-2.536 2.537c-.564 1.127-.846 2.396-.846 3.805 0 1.409.282 2.678.846 3.805a5.525 5.525 0 0 0 2.536 2.536c1.128.564 2.255.987 3.523.987 1.41 0 2.678-.423 3.664-.987ZM449.262 440.948a7.466 7.466 0 0 1-2.114 1.128 7.999 7.999 0 0 1-2.536.422c-2.114 0-3.805-.563-4.933-1.691-1.127-1.127-1.691-2.818-1.691-4.791v-11.415h-3.523v-3.1h3.523v-4.51h3.805v4.51h6.06v3.1h-6.06v11.274c0 1.127.282 1.973.846 2.537.563.563 1.409.845 2.395.845 1.128 0 2.114-.282 2.96-.986l1.268 2.677ZM471.951 432.915H455.04c.282 1.832.986 3.382 2.396 4.369 1.409 1.127 3.1 1.691 5.214 1.691 2.536 0 4.509-.846 6.06-2.537l2.113 2.396c-.986 1.127-2.113 1.973-3.523 2.536-1.409.564-2.959.846-4.65.846-2.255 0-4.228-.423-5.919-1.409-1.691-.987-3.1-2.114-3.946-3.805-.986-1.691-1.409-3.523-1.409-5.496 0-1.973.423-3.805 1.409-5.496a8.296 8.296 0 0 1 3.805-3.805c1.691-.846 3.382-1.409 5.355-1.409 1.973 0 3.805.422 5.355 1.409a8.7 8.7 0 0 1 3.664 3.805c.846 1.691 1.269 3.523 1.269 5.637-.282.422-.282.845-.282 1.268Zm-14.797-7.046c-1.268 1.127-1.973 2.536-2.114 4.368h13.388c-.141-1.832-.987-3.241-2.114-4.368-1.268-1.127-2.678-1.691-4.51-1.691-1.832 0-3.523.564-4.65 1.691Zm6.905-12.824h4.791l-6.623 5.073h-3.523l5.355-5.073ZM494.78 423.332c1.55 1.55 2.396 3.805 2.396 6.764v11.979h-3.946v-11.556c0-1.973-.423-3.523-1.409-4.51-.987-.986-2.396-1.55-4.228-1.55-2.114 0-3.664.564-4.791 1.832-1.128 1.128-1.832 2.96-1.832 5.214v10.711h-3.805v-20.857h3.664v3.1c.705-1.127 1.832-1.973 3.1-2.536 1.269-.564 2.819-.846 4.51-.846 2.677 0 4.791.705 6.341 2.255ZM534.239 421.219v20.856h-3.523v-3.1c-.705 1.127-1.832 1.973-2.96 2.537a10.117 10.117 0 0 1-4.087.845c-2.818 0-4.932-.704-6.623-2.255-1.55-1.55-2.396-3.804-2.396-6.764V421.36h3.805v11.555c0 1.973.423 3.523 1.41 4.651.986.986 2.395 1.55 4.227 1.55 1.973 0 3.523-.564 4.792-1.832 1.127-1.268 1.691-2.959 1.691-5.073V421.36h3.664v-.141ZM558.9 423.332c1.55 1.55 2.396 3.805 2.396 6.764v11.979h-3.805v-11.556c0-1.973-.423-3.523-1.409-4.51-.987-.986-2.396-1.55-4.228-1.55-2.114 0-3.664.564-4.791 1.832-1.128 1.128-1.832 2.96-1.832 5.214v10.711h-3.805v-20.857h3.664v3.1c.704-1.127 1.832-1.973 3.1-2.536 1.268-.564 2.819-.846 4.51-.846 2.536 0 4.65.705 6.2 2.255Z"/><path fill="#F78D74" d="m67.22 471.247-2.818 9.864h3.1c6.342 0 11.274 1.269 14.515 3.664 3.241 2.537 4.932 6.06 4.932 10.57 0 3.805-.986 7.187-3.1 10.146-1.973 2.959-4.932 5.073-8.455 6.764-3.664 1.551-7.892 2.396-12.542 2.396-3.805 0-7.47-.564-10.71-1.55-3.242-.987-6.06-2.537-8.315-4.51l5.778-8.878c1.69 1.55 3.805 2.678 6.341 3.523 2.396.846 5.074 1.269 7.751 1.269 3.523 0 6.342-.705 8.315-1.973 1.972-1.269 2.959-3.242 2.959-5.637 0-3.946-3.382-5.919-10.147-5.919H50.733l8.456-29.312h31.848l-1.973 9.724H67.22v-.141ZM98.082 509.296c-3.382-3.523-5.073-8.314-5.073-14.515 0-6.201 1.127-11.978 3.523-17.193 2.255-5.214 5.496-9.3 9.583-12.401 4.087-3.1 8.737-4.509 14.092-4.509 5.778 0 10.429 1.691 13.811 5.214 3.382 3.523 5.073 8.314 5.073 14.515 0 6.201-1.127 11.978-3.523 17.193-2.255 5.214-5.496 9.3-9.583 12.401-4.087 3.1-8.737 4.509-14.092 4.509-5.919 0-10.428-1.691-13.81-5.214Zm22.266-8.737c2.114-2.537 3.664-5.637 4.792-9.301 1.127-3.664 1.691-7.187 1.691-10.71 0-3.382-.705-5.778-2.114-7.469-1.409-1.55-3.241-2.396-5.778-2.396-2.818 0-5.355 1.269-7.469 3.664-2.114 2.537-3.664 5.637-4.791 9.301-1.128 3.664-1.691 7.187-1.691 10.71 0 3.382.704 5.778 2.113 7.469 1.41 1.55 3.242 2.396 5.778 2.396 2.96.141 5.355-1.127 7.469-3.664ZM148.533 486.608c-2.114-2.114-3.101-4.932-3.101-8.596 0-3.101.564-5.919 1.832-8.597 1.128-2.536 2.96-4.65 5.215-6.2 2.254-1.55 4.932-2.255 7.891-2.255 3.382 0 6.201.986 8.174 3.1 2.114 2.114 3.1 4.933 3.1 8.597 0 3.241-.564 6.059-1.832 8.596-1.127 2.536-2.959 4.65-5.214 6.06-2.255 1.55-4.932 2.254-7.892 2.254-3.382.141-6.059-.986-8.173-2.959Zm43.263-25.084h9.442l-45.377 52.141h-9.442l45.377-52.141Zm-29.312 18.883c1.127-2.114 1.691-4.509 1.691-7.187 0-1.973-.423-3.523-1.127-4.509-.846-.987-1.832-1.55-3.241-1.55-2.114 0-3.805 1.127-4.933 3.241-1.127 2.114-1.691 4.509-1.691 7.187 0 1.973.423 3.523 1.128 4.509.845.987 1.832 1.551 3.241 1.551 2.114-.141 3.805-1.128 4.932-3.242Zm16.629 30.722c-1.973-2.114-3.1-4.933-3.1-8.597 0-3.1.563-5.919 1.832-8.596 1.127-2.537 2.959-4.651 5.214-6.06 2.255-1.55 4.932-2.255 7.891-2.255 3.524 0 6.201.987 8.315 3.101s3.1 4.932 3.1 8.596c0 3.241-.563 6.06-1.832 8.596-1.127 2.537-2.959 4.51-5.214 6.06-2.255 1.55-4.932 2.255-7.892 2.255-3.523 0-6.341-.987-8.314-3.1Zm13.81-6.201c1.128-2.114 1.691-4.51 1.691-7.187 0-1.973-.422-3.523-1.268-4.51-.845-.986-1.832-1.55-3.241-1.55-2.114 0-3.805 1.128-5.073 3.241-1.128 2.114-1.691 4.51-1.691 7.187 0 1.973.422 3.524 1.268 4.51.845.986 1.973 1.55 3.241 1.55 2.255 0 3.946-.986 5.073-3.241ZM239.005 461.524h21.702c5.355 0 9.865.846 13.67 2.678 3.805 1.832 6.764 4.228 8.878 7.61 2.114 3.241 3.1 7.187 3.1 11.555 0 6.06-1.409 11.415-4.086 15.925-2.678 4.65-6.483 8.173-11.415 10.569-4.932 2.537-10.569 3.805-16.911 3.805h-25.507l10.569-52.142Zm15.361 42.136c4.087 0 7.61-.845 10.569-2.536 2.959-1.691 5.355-4.087 6.905-7.046 1.55-2.96 2.396-6.342 2.396-10.147 0-3.946-1.268-7.046-3.805-9.16-2.537-2.255-6.201-3.241-10.992-3.241h-10.287l-6.483 32.271h11.697v-.141ZM310.453 471.247l-2.255 11.274h24.239l-1.832 9.441h-24.239l-2.395 12.12h28.466l-1.973 9.724H290.16l10.428-52.142h39.318l-1.973 9.724h-27.48v-.141ZM346.247 512.82c-3.804-1.128-6.764-2.537-9.019-4.228l4.933-9.301a30.81 30.81 0 0 0 8.032 4.087c2.96.986 6.06 1.409 9.16 1.409 3.382 0 5.919-.564 7.892-1.691 1.973-1.128 2.959-2.537 2.959-4.51 0-1.55-.704-2.677-2.254-3.523-1.551-.845-3.946-1.691-7.328-2.677-3.383-.987-6.06-1.973-8.315-2.819-2.114-.986-3.946-2.255-5.496-4.087-1.55-1.832-2.396-4.227-2.396-7.328 0-3.523.987-6.623 2.96-9.3 1.973-2.678 4.791-4.792 8.314-6.201 3.664-1.409 7.751-2.114 12.542-2.114 3.523 0 6.906.423 10.006 1.128 3.1.704 5.778 1.831 8.033 3.241l-4.51 9.16c-1.973-1.41-4.087-2.396-6.482-2.96-2.396-.704-4.933-.986-7.61-.986-3.382 0-6.06.564-8.174 1.832-1.973 1.127-2.959 2.677-2.959 4.65 0 1.128.423 2.114 1.268 2.819.846.704 1.973 1.409 3.241 1.832 1.269.423 3.101.986 5.496 1.691 3.383.845 6.06 1.832 8.174 2.677 2.114.987 3.946 2.255 5.496 4.087 1.55 1.832 2.255 4.087 2.255 6.905 0 3.523-.987 6.624-2.96 9.301-1.973 2.678-4.791 4.651-8.455 6.201-3.664 1.409-7.892 2.255-12.683 2.255-4.51.141-8.315-.423-12.12-1.55ZM401.067 511.693c-3.946-1.832-6.906-4.51-9.019-7.892-2.114-3.382-3.101-7.328-3.101-11.838 0-5.918 1.409-11.274 4.087-15.924 2.678-4.791 6.482-8.455 11.415-11.133 4.932-2.677 10.569-4.087 16.911-4.087 4.65 0 8.737.846 12.401 2.396 3.523 1.55 6.341 3.805 8.173 6.905l-8.737 7.187c-2.818-4.086-6.905-6.059-12.542-6.059-3.805 0-7.187.845-10.147 2.677-2.959 1.832-5.214 4.228-6.764 7.328-1.55 3.1-2.396 6.483-2.396 10.288 0 4.086 1.269 7.187 3.805 9.582 2.537 2.396 6.201 3.523 10.711 3.523 5.496 0 10.146-1.973 13.81-6.059l7.187 7.328c-5.214 6.059-12.542 9.019-21.984 9.019-5.355-.423-9.865-1.409-13.81-3.241ZM450.53 509.577c-3.664-3.241-5.636-7.75-5.636-13.387 0-1.691.14-3.523.563-5.637l5.778-29.171h12.119l-5.777 28.889c-.282 1.691-.423 3.1-.423 4.369 0 3.1.845 5.496 2.536 7.046 1.692 1.55 4.228 2.396 7.469 2.396 3.664 0 6.624-1.128 8.738-3.242 2.113-2.114 3.805-5.637 4.791-10.428l5.778-28.889h11.837l-5.918 29.735c-3.242 15.501-12.12 23.252-26.635 23.252-6.341 0-11.415-1.55-15.22-4.933ZM520.569 471.247l-2.255 11.274h24.239l-1.832 9.441h-24.238l-2.396 12.12h28.466l-1.973 9.724h-40.304l10.429-52.142h39.317l-1.973 9.724h-27.48v-.141ZM608.223 461.524l-10.428 52.142h-9.865l-19.447-32.553L562 513.666h-11.837l10.428-52.142h10.006l19.447 32.695 6.482-32.695h11.697ZM629.221 471.389h-16.629l1.973-9.865h45.377l-1.973 9.865H641.34l-8.455 42.277h-12.12l8.456-42.277ZM668.82 511.693c-3.805-1.832-6.764-4.51-8.737-7.892-1.973-3.382-3.1-7.328-3.1-11.838 0-5.918 1.409-11.274 4.086-15.924 2.678-4.791 6.483-8.455 11.415-11.133 4.932-2.677 10.428-4.087 16.77-4.087 5.214 0 9.724.987 13.528 2.819 3.805 1.832 6.765 4.509 8.738 7.891 1.973 3.383 3.1 7.328 3.1 11.838 0 5.919-1.409 11.274-4.087 15.924-2.677 4.792-6.482 8.456-11.415 11.133-4.932 2.678-10.428 4.087-16.769 4.087-5.214 0-9.724-.986-13.529-2.818Zm24.662-10.147c2.818-1.832 5.073-4.228 6.623-7.328 1.55-3.1 2.255-6.482 2.255-10.146 0-3.946-1.269-7.187-3.664-9.442-2.537-2.396-5.919-3.523-10.429-3.523-3.805 0-7.187.986-10.005 2.818-2.819 1.832-5.073 4.228-6.623 7.328-1.551 3.1-2.255 6.483-2.255 10.147 0 3.945 1.268 7.187 3.664 9.441 2.536 2.396 5.919 3.524 10.428 3.524 3.664-.141 7.046-.987 10.006-2.819Z"/><path stroke="#F78D74" stroke-miterlimit="10" stroke-width="2.818" d="M581.307 439.68h177.986v66.233M199.406 541.991H21.42v-66.234"/></g><defs><clipPath id="a"><path fill="#fff" d="M0 0h1020v543.399H0z"/></clipPath></defs></svg>